<svg height="511pt" viewBox="-75 1 511 511.99988" width="511pt" xmlns="http://www.w3.org/2000/svg"><path d="m101.429688 420.859375 16.652343 46.726563-16.652343 36.914062h-47.28125c0-55.371094 47.28125-83.640625 47.28125-83.640625zm0 0" fill="#b2b0bc"/><path d="m105.867188 433.304688-4.4375-12.445313s-47.28125 28.269531-47.28125 83.640625h20c0-34.109375 17.9375-57.925781 31.71875-71.195312zm0 0" fill="#938ea3"/><path d="m260.640625 420.859375-16.65625 46.726563 16.65625 36.914062h47.28125c0-55.371094-47.28125-83.640625-47.28125-83.640625zm0 0" fill="#b2b0bc"/><path d="m101.429688 420.859375v83.640625h44.800781l34.804687-13.84375 34.804688 13.84375h44.800781v-83.640625zm0 0" fill="#e8e8e8"/><path d="m197.351562 471.871094v-51.011719h-32.628906v51.011719h-18.492187v32.628906h69.609375v-32.628906zm0 0" fill="#fd5f7e"/><g fill="#b2b0bc"><path d="m155.652344 11.644531 25.382812 85.234375-25.382812 85.234375-121.0625-24.410156s14.652344-117.523437 121.0625-146.058594zm0 0"/><path d="m327.480469 157.703125-121.066407 24.410156-25.378906-85.234375 25.378906-85.234375c106.414063 28.535157 121.066407 146.058594 121.066407 146.058594zm0 0"/><path d="m346.441406 216.253906c4.953125 16.105469 7.625 33.210938 7.625 50.941406 0 95.566407-77.46875 173.035157-173.03125 173.035157s-173.035156-77.46875-173.035156-173.03125c0-17.734375 2.675781-34.839844 7.628906-50.945313l25.835938-25.835937h283.929687zm0 0"/></g><path d="m9.34375 245.640625c3.042969.738281 6.195312 1.128906 9.398438 1.128906h324.582031c3.203125 0 6.359375-.390625 9.40625-1.128906-1.257813-10.089844-3.375-19.914063-6.289063-29.386719l-21.046875-25.839844h-283.925781l-25.839844 25.839844c-2.914062 9.472656-5.03125 19.296875-6.285156 29.386719zm0 0" fill="#938ea3"/><path d="m46.542969 215.492188c-2.613281 10.722656-3.933594 23.738281-3.933594 34.894531 0 76.332031 62.097656 138.425781 138.425781 138.425781s138.425782-62.097656 138.425782-138.425781c0-11.746094-1.464844-23.367188-4.363282-34.625l-134.0625-12.832031zm0 0" fill="#ffd3bc"/><path d="m206.417969 11.644531v170.46875l-25.382813 5.125-25.382812-5.125v-170.46875c4.460937-1.199219 9.089844-2.238281 13.875-3.105469 7.601562-1.386718 15.414062-1.386718 23.015625 0 4.785156.867188 9.414062 1.90625 13.875 3.105469zm0 0" fill="#c7c5cb"/><path d="m64.589844 157.703125s14.652344-117.523437 121.0625-146.0625c3.367187-.902344 6.828125-1.714844 10.382812-2.433594-1.152344-.230469-2.316406-.457031-3.492187-.671875-7.601563-1.382812-15.414063-1.382812-23.015625 0-4.789063.871094-9.414063 1.910156-13.875 3.105469-106.410156 28.535156-121.0625 146.058594-121.0625 146.058594h30zm0 0" fill="#938ea3"/><path d="m155.652344 23.0625c9.089844-4.59375 19.054687-8.484375 30-11.417969 3.367187-.90625 6.828125-1.714843 10.382812-2.4375-1.152344-.230469-2.316406-.457031-3.492187-.667969-7.601563-1.386718-15.414063-1.386718-23.015625 0-3.589844.652344-7.089844 1.398438-10.496094 2.234376-1.136719.28125-2.261719.570312-3.378906.867187zm0 0" fill="#b2b0bc"/><path d="m319.40625 246.769531c-.269531-10.511719-1.707031-20.90625-4.308594-31.007812l-134.0625-12.832031-134.492187 12.5625c-2.335938 9.585937-3.632813 20.996093-3.882813 31.277343zm0 0" fill="#ffbe9c"/><path d="m192.550781 176.628906c-7.609375-1.386718-15.417969-1.386718-23.03125 0-4.78125.867188-9.410156 1.90625-13.867187 3.101563v105.878906c0 8.371094 6.785156 15.15625 15.15625 15.15625h20.453125c8.371093 0 15.15625-6.785156 15.15625-15.15625v-105.878906c-4.460938-1.195313-9.085938-2.234375-13.867188-3.101563zm0 0" fill="#c7c5cb"/><path d="m206.417969 246.769531v-67.039062c-4.460938-1.195313-9.085938-2.234375-13.867188-3.101563-7.609375-1.386718-15.417969-1.386718-23.03125 0-4.78125.867188-9.410156 1.90625-13.867187 3.101563v67.039062zm0 0" fill="#b2b0bc"/><path d="m352.503906 203.476562c-6.15625-16.511718-14.628906-31.902343-25.027344-45.773437h-292.882812c-10.398438 13.871094-18.871094 29.261719-25.027344 45.773437-2.398437 6.433594 2.308594 13.292969 9.175782 13.292969h324.582031c6.871093 0 11.578125-6.859375 9.179687-13.292969zm0 0" fill="#938ea3"/><path d="m39.566406 203.476562c6.15625-16.511718 14.628906-31.902343 25.027344-45.773437h-30c-10.398438 13.871094-18.871094 29.261719-25.027344 45.773437-2.398437 6.433594 2.308594 13.292969 9.175782 13.292969h30c-6.867188 0-11.574219-6.859375-9.175782-13.292969zm0 0" fill="#77718c"/><path d="m111.976562 308.148438h-21.082031c-4.144531 0-7.5-3.359376-7.5-7.5 0-4.144532 3.355469-7.5 7.5-7.5h21.082031c4.140626 0 7.5 3.355468 7.5 7.5 0 4.140624-3.359374 7.5-7.5 7.5zm0 0" fill="#ff889e"/><path d="m271.175781 308.148438h-21.082031c-4.140625 0-7.5-3.359376-7.5-7.5 0-4.144532 3.359375-7.5 7.5-7.5h21.082031c4.140625 0 7.5 3.355468 7.5 7.5 0 4.140624-3.359375 7.5-7.5 7.5zm0 0" fill="#ff889e"/><path d="m101.433594 285.394531c4.140625 0 7.5-3.355469 7.5-7.5v-15.476562c0-4.140625-3.359375-7.5-7.5-7.5-4.144532 0-7.5 3.359375-7.5 7.5v15.476562c0 4.140625 3.355468 7.5 7.5 7.5zm0 0"/><path d="m260.636719 285.394531c4.140625 0 7.5-3.355469 7.5-7.5v-15.476562c0-4.140625-3.359375-7.5-7.5-7.5s-7.5 3.359375-7.5 7.5v15.476562c0 4.140625 3.359375 7.5 7.5 7.5zm0 0"/><path d="m200.207031 322.429688c-3.117187-2.726563-7.855469-2.40625-10.582031.710937-2.074219 2.375-5.207031 3.734375-8.589844 3.734375-3.386718 0-6.515625-1.359375-8.589844-3.734375-2.726562-3.117187-7.464843-3.4375-10.582031-.710937-3.121093 2.726562-3.4375 7.464843-.710937 10.585937 4.921875 5.632813 12.167968 8.859375 19.882812 8.859375s14.960938-3.230469 19.886719-8.859375c2.722656-3.121094 2.40625-7.859375-.714844-10.585937zm0 0"/><path d="m87.628906 421.636719c-14.851562 12.1875-40.984375 39.753906-40.984375 82.863281 0 4.140625 3.359375 7.5 7.5 7.5h253.78125c4.140625 0 7.5-3.359375 7.5-7.5 0-24.433594-8.789062-47.75-25.414062-67.425781-5.691407-6.734375-11.382813-11.933594-15.605469-15.417969 52.207031-31.675781 87.164062-89.0625 87.164062-154.460938 0-16.175781-2.144531-32.179687-6.371093-47.65625.859375-.808593 1.644531-1.707031 2.332031-2.695312 3.242188-4.675781 3.992188-10.652344 2-15.992188-6.113281-16.402343-14.496094-31.875-24.890625-46.042968-1.140625-7.285156-6.046875-33.601563-21.117187-62.871094-23.191407-45.042969-59.554688-75.3125-105.160157-87.542969-.003906 0-.003906 0-.003906 0-4.667969-1.253906-9.535156-2.34375-14.472656-3.242187-8.449219-1.539063-17.253907-1.535156-25.703125 0-4.9375.898437-9.808594 1.988281-14.472656 3.242187h-.003907c-29.5625 7.929688-55.0625 23.191407-75.78125 45.367188-2.828125 3.027343-2.664062 7.773437.359375 10.601562 3.027344 2.828125 7.773438 2.664063 10.601563-.359375 16.535156-17.695312 36.433593-30.539062 59.265625-38.261718v128.457031h-104.59375c2.851562-13.457031 10.375-41.015625 27.894531-67.855469 2.261719-3.472656 1.285156-8.117188-2.183594-10.382812-3.46875-2.261719-8.113281-1.285157-10.378906 2.183593-23.289063 35.679688-30.089844 71.875-31.460937 80.664063-10.394532 14.167968-18.777344 29.640625-24.890626 46.042968-1.992187 5.339844-1.242187 11.316407 2 15.988282.6875.988281 1.472657 1.886718 2.332032 2.699218-4.226563 15.472657-6.371094 31.476563-6.371094 47.65625 0 65.382813 34.941406 122.761719 87.128906 154.441407zm75.523438-197.367188h35.761718v61.339844c0 4.222656-3.433593 7.65625-7.652343 7.65625h-20.453125c-4.222656 0-7.65625-3.4375-7.65625-7.65625zm89.988281 272.730469h-29.800781v-25.128906c0-4.140625-3.359375-7.5-7.5-7.5h-10.988282v-18.214844c16.597657-2.195312 32.9375-6.742188 48.289063-13.421875zm-159.210937-60.882812v60.882812h-31.957032c2.582032-29.597656 20.007813-50.113281 31.957032-60.882812zm15-3.382813c3.234374 1.410156 6.519531 2.710937 9.835937 3.921875 12.429687 4.554688 25.332031 7.761719 38.457031 9.5v18.214844h-10.992187c-4.140625 0-7.5 3.355468-7.5 7.5v25.128906h-29.800781zm44.800781 64.265625v-17.628906h10.988281c4.144531 0 7.5-3.359375 7.5-7.5v-24.359375c1.460938.070312 2.921875.128906 4.390625.164062 4.414063.101563 8.828125.050781 13.238281-.164062v24.359375c0 4.140625 3.359375 7.5 7.5 7.5h10.992188v17.628906zm146.371093 0h-31.960937v-60.941406c11.949219 10.722656 29.386719 31.195312 31.960937 60.941406zm-103.929687-64.96875c-10.082031.914062-20.191406.875-30.273437 0-84.207032-7.671875-150.398438-78.664062-150.398438-164.835938 0-14.570312 1.890625-28.984374 5.625-42.925781h16.0625c-1.335938 8.402344-2.082031 17.519531-2.082031 26.117188 0 80.464843 65.464843 145.925781 145.929687 145.925781 28.316406 0 55.804688-8.164062 79.492188-23.609375 3.46875-2.261719 4.449218-6.90625 2.1875-10.378906-2.261719-3.46875-6.910156-4.449219-10.378906-2.183594-21.246094 13.851563-45.902344 21.171875-71.300782 21.171875-72.191406 0-130.925781-58.734375-130.925781-130.925781 0-8.523438.832031-17.898438 2.28125-26.121094h95.761719v61.34375c0 12.492187 10.164062 22.65625 22.65625 22.65625h20.453125c12.492187 0 22.65625-10.164063 22.65625-22.65625v-61.34375h95.429687c1.738282 8.582031 2.617188 17.339844 2.617188 26.121094 0 34.617187-13.445313 67.285156-37.859375 91.984375-2.914063 2.945312-2.882813 7.695312.0625 10.605468 2.945312 2.914063 7.691406 2.886719 10.605469-.0625 27.207031-27.523437 42.191406-63.933593 42.191406-102.527343 0-8.769531-.792969-17.515625-2.351563-26.121094h16.335938c3.734375 13.945313 5.625 28.359375 5.625 42.929687-.003907 86.171876-66.195313 157.164063-150.402344 164.835938zm103.785156-333.667969c10.972657 21.171875 16.257813 41.039063 18.550781 51.835938h-104.59375v-128.46875c37.265626 12.554687 66.183594 38.296875 86.042969 76.632812zm-136.804687-80.867187c2.535156-.582032 5.113281-1.109375 7.714844-1.585938 6.683593-1.214844 13.648437-1.214844 20.335937 0 2.601563.476563 5.179687 1.003906 7.710937 1.585938v132.703125h-35.761718zm-146.558594 188.597656c5.410156-14.519531 12.734375-28.261719 21.796875-40.894531h285.289063c9.058593 12.632812 16.386718 26.375 21.796874 40.890625.554688 1.488281-.53125 3.171875-2.148437 3.175781 0 0-324.558594 0-324.589844 0-1.628906-.023437-2.707031-1.667969-2.144531-3.171875zm0 0"/></svg>