<svg height="512pt" viewBox="-27 0 512 512.00075" width="512pt" xmlns="http://www.w3.org/2000/svg"><path d="m326.160156 210.167969c-17.753906-21.171875-23.441406-50.5625-23.441406-50.5625l-67.371094-145.308594c-4.007812-8.644531-16.292968-8.644531-20.300781 0l-67.300781 145.15625s-7.675782 30.917969-23.503906 50.691406l-70.335938 152.710938c53.800781 25.007812 111.324219 37.675781 171.289062 37.675781 48.167969 0 95.753907-8.179688 140.109376-24.355469l1.246093-81.042969zm0 0" fill="#4f67d2"/><path d="m240.363281 25.113281-5.015625-10.816406c-4.007812-8.644531-16.292968-8.644531-20.300781 0l-161.140625 348.558594c10.222656 4.753906 20.585938 9.058593 31.070312 12.917969zm0 0" fill="#324ccc"/><path d="m254.9375 123.300781c1.898438-1.847656.851562-5.074219-1.773438-5.453125l-15.628906-2.273437c-1.042968-.152344-1.941406-.804688-2.40625-1.75l-6.992187-14.164063c-1.171875-2.375-4.5625-2.375-5.734375 0l-6.992188 14.164063c-.464844.945312-1.363281 1.597656-2.40625 1.75l-15.632812 2.273437c-2.621094.378906-3.667969 3.605469-1.773438 5.453125l11.3125 11.027344c.753906.734375 1.097656 1.792969.921875 2.828125l-2.671875 15.570312c-.449218 2.613282 2.292969 4.605469 4.640625 3.371094l13.980469-7.351562c.933594-.488282 2.042969-.488282 2.976562 0l13.980469 7.351562c2.347657 1.230469 5.085938-.761718 4.640625-3.371094l-2.671875-15.570312c-.175781-1.035156.167969-2.09375.921875-2.828125zm0 0" fill="#fee55a"/><path d="m224.992188 146.472656 2.671874-15.566406c.175782-1.035156-.167968-2.097656-.921874-2.832031l-11.308594-11.023438c-.621094-.601562-.917969-1.351562-.960938-2.101562-.425781.324219-.925781.546875-1.46875.625l-15.632812 2.273437c-2.621094.378906-3.667969 3.605469-1.769532 5.453125l11.308594 11.027344c.753906.734375 1.097656 1.792969.921875 2.828125l-2.671875 15.570312c-.445312 2.609376 2.296875 4.605469 4.640625 3.371094l13.980469-7.351562c.460938-.242188.96875-.363282 1.472656-.363282-.269531-.5625-.378906-1.210937-.261718-1.910156zm0 0" fill="#ffd301"/><path d="m302.71875 159.605469-3.9375 7.972656c-.464844.945313-1.367188 1.597656-2.40625 1.75l-15.632812 2.273437c-2.621094.378907-3.671876 3.605469-1.773438 5.453126l11.3125 11.027343c.753906.734375 1.097656 1.792969.917969 2.828125l-2.667969 15.570313c-.449219 2.613281 2.292969 4.605469 4.640625 3.371093l13.980469-7.351562c.929687-.488281 2.042968-.488281 2.976562 0l13.980469 7.351562c.679687.355469 1.390625.4375 2.050781.316407zm0 0" fill="#fee55a"/><path d="m126.429688 209.851562 13.980468-7.351562c.929688-.488281 2.042969-.488281 2.976563 0l13.980469 7.351562c2.34375 1.234376 5.089843-.757812 4.640624-3.371093l-2.671874-15.566407c-.175782-1.039062.167968-2.097656.921874-2.832031l11.308594-11.027343c1.898438-1.847657.851563-5.074219-1.769531-5.453126l-15.632813-2.269531c-1.042968-.152343-1.941406-.808593-2.40625-1.75l-4.011718-8.128906-23.5 50.691406c.691406.160157 1.457031.085938 2.183594-.292969zm0 0" fill="#ffd301"/><path d="m414.433594 352.992188c-4.910156 2.578124-9.859375 5.035156-14.835938 7.398437l.671875 43.039063c11.046875-4.691407 21.910157-9.816407 32.542969-15.394532 9.675781-5.074218 13.40625-17.03125 8.332031-26.710937-5.074219-9.675781-17.03125-13.40625-26.710937-8.332031zm0 0" fill="#6c7ed6"/><path d="m443.203125 367.792969c-.855469 4.621093-4.519531 8.878906-10.390625 11.210937-10.605469 4.214844-21.4375 8.089844-32.457031 11.636719v12.75c11.019531-4.679687 21.851562-9.792969 32.457031-15.355469 7.597656-3.984375 11.503906-12.210937 10.390625-20.242187zm0 0" fill="#4f67d2"/><path d="m364.304688 375.1875c-44.351563 16.171875-90.941407 24.34375-139.109376 24.34375-66.683593 0-130.351562-15.65625-189.238281-46.539062-9.675781-5.074219-21.632812-1.34375-26.710937 8.332031-5.074219 9.679687-1.34375 21.636719 8.332031 26.710937 63.703125 33.410156 135.496094 51.066406 207.617187 51.066406 47.007813 0 93.875-7.507812 138.453126-21.980468zm0 0" fill="#6c7ed6"/><path d="m240.195312 421.265625c-72.121093 0-143.914062-17.660156-207.613281-51.066406-7.167969-3.757813-11.058593-11.289063-10.542969-18.875-5.304687 1.308593-10.050781 4.78125-12.789062 10-5.078125 9.679687-1.34375 21.636719 8.332031 26.710937 63.699219 33.410156 135.492188 51.066406 207.613281 51.066406 47.007813 0 93.875-7.507812 138.453126-21.980468l.210937-13.332032c-40.101563 11.515626-81.824219 17.476563-123.664063 17.476563zm0 0" fill="#4f67d2"/><path d="m366.164062 191.761719-4.671874 299.445312c-.117188 7.480469 5.917968 13.609375 13.398437 13.609375h14.351563c7.484374 0 13.511718-6.128906 13.398437-13.609375l-4.671875-299.445312zm0 0" fill="#b1dbfc"/><path d="m382.066406 491.207031c3.289063-210.820312 4.203125-269.023437 4.671875-299.445312h-20.574219l-4.671874 299.445312c-.117188 7.480469 5.917968 13.609375 13.398437 13.609375h14.351563c1.074218 0 2.113281-.140625 3.113281-.378906-5.972657-1.421875-10.386719-6.824219-10.289063-13.230469zm0 0" fill="#8cc9f9"/><path d="m377.753906 118.996094-10.570312 5.558594-1.035156 68.207031h31.835937l-1.035156-68.207031-10.574219-5.558594c-2.070312-1.089844-6.546875-1.089844-8.621094 0zm0 0" fill="#6c7ed6"/><path d="m387.582031 136.117188c.078125-5.144532 2.1875-9.953126 5.722657-13.480469l-6.925782-3.640625c-2.074218-1.089844-6.550781-1.089844-8.625 0l-10.570312 5.558594-1.035156 68.207031h20.574218c.304688-19.894531.421875-27.820313.859375-56.644531zm0 0" fill="#4f67d2"/><path d="m448.082031 64.378906c4.222657-4.117187 1.894531-11.289062-3.945312-12.136718l-34.777344-5.054688c-2.320313-.335938-4.324219-1.792969-5.359375-3.890625l-15.554688-31.515625c-2.609374-5.289062-10.152343-5.289062-12.761718 0l-15.554688 31.515625c-1.035156 2.097656-3.039062 3.554687-5.355468 3.890625l-34.78125 5.054688c-5.835938.847656-8.167969 8.019531-3.941407 12.136718l25.164063 24.53125c1.679687 1.636719 2.441406 3.992188 2.046875 6.300782l-5.941407 34.636718c-.996093 5.8125 5.105469 10.246094 10.324219 7.503906l31.109375-16.355468c2.074219-1.089844 4.550782-1.089844 6.621094 0l31.109375 16.355468c5.21875 2.742188 11.324219-1.691406 10.324219-7.503906l-5.941406-34.636718c-.394532-2.308594.371093-4.664063 2.046874-6.300782zm0 0" fill="#fee55a"/><path d="m367.320312 120.015625 5.941407-34.640625c.398437-2.304688-.367188-4.664062-2.046875-6.296875l-25.164063-24.53125c-1.683593-1.640625-2.3125-3.765625-2.105469-5.785156l-23.949218 3.480469c-5.839844.847656-8.167969 8.019531-3.945313 12.136718l25.167969 24.535156c1.675781 1.632813 2.441406 3.988282 2.046875 6.296876l-5.941406 34.636718c-1 5.816406 5.101562 10.246094 10.324219 7.503906l21.484374-11.296874c-1.425781-1.519532-2.21875-3.65625-1.8125-6.039063zm0 0" fill="#ffd301"/><path d="m254.9375 230.609375c1.898438-1.847656.851562-5.074219-1.773438-5.453125l-15.628906-2.273438c-1.042968-.152343-1.941406-.804687-2.40625-1.75l-6.992187-14.164062c-1.171875-2.375-4.5625-2.375-5.734375 0l-6.992188 14.164062c-.464844.945313-1.363281 1.597657-2.40625 1.75l-15.632812 2.273438c-2.621094.378906-3.667969 3.605469-1.773438 5.453125l11.3125 11.027344c.753906.734375 1.097656 1.792969.921875 2.828125l-2.671875 15.570312c-.449218 2.613282 2.292969 4.605469 4.640625 3.371094l13.980469-7.351562c.933594-.488282 2.042969-.488282 2.976562 0l13.980469 7.351562c2.347657 1.230469 5.085938-.761719 4.640625-3.371094l-2.671875-15.570312c-.175781-1.035156.167969-2.09375.921875-2.828125zm0 0" fill="#fee55a"/><path d="m224.992188 253.785156 2.671874-15.570312c.175782-1.035156-.167968-2.09375-.921874-2.832032l-11.308594-11.023437c-.621094-.601563-.917969-1.351563-.960938-2.101563-.425781.324219-.925781.546876-1.46875.625l-15.632812 2.273438c-2.621094.378906-3.667969 3.605469-1.769532 5.453125l11.308594 11.027344c.753906.734375 1.097656 1.792969.921875 2.828125l-2.671875 15.570312c-.445312 2.609375 2.296875 4.605469 4.640625 3.371094l13.980469-7.351562c.460938-.242188.96875-.363282 1.472656-.363282-.269531-.5625-.378906-1.210937-.261718-1.90625zm0 0" fill="#ffd301"/><path d="m254.9375 337.917969c1.898438-1.847657.851562-5.074219-1.773438-5.453125l-15.628906-2.273438c-1.042968-.148437-1.941406-.804687-2.40625-1.75l-6.992187-14.164062c-1.171875-2.375-4.5625-2.375-5.734375 0l-6.992188 14.164062c-.464844.945313-1.363281 1.601563-2.40625 1.75l-15.632812 2.273438c-2.621094.378906-3.667969 3.605468-1.773438 5.453125l11.3125 11.027343c.753906.734376 1.097656 1.792969.921875 2.828126l-2.671875 15.570312c-.449218 2.613281 2.292969 4.605469 4.640625 3.371094l13.980469-7.351563c.933594-.488281 2.042969-.488281 2.976562 0l13.980469 7.351563c2.347657 1.230468 5.085938-.761719 4.640625-3.371094l-2.671875-15.570312c-.175781-1.035157.167969-2.09375.921875-2.828126zm0 0" fill="#fee55a"/><path d="m224.992188 361.09375 2.671874-15.570312c.175782-1.035157-.167968-2.09375-.921874-2.832032l-11.308594-11.023437c-.621094-.601563-.917969-1.351563-.960938-2.101563-.425781.324219-.925781.546875-1.46875.625l-15.632812 2.273438c-2.621094.378906-3.667969 3.605468-1.769532 5.453125l11.308594 11.027343c.753906.734376 1.097656 1.792969.921875 2.828126l-2.671875 15.570312c-.445312 2.609375 2.296875 4.605469 4.640625 3.371094l13.980469-7.351563c.460938-.242187.96875-.363281 1.472656-.363281-.269531-.5625-.378906-1.210938-.261718-1.90625zm0 0" fill="#ffd301"/><path d="m338.308594 279.328125c1.898437-1.851563.851562-5.074219-1.773438-5.457031l-15.628906-2.269532c-1.042969-.152343-1.941406-.804687-2.410156-1.75l-6.988282-14.164062c-1.171874-2.378906-4.5625-2.378906-5.734374 0l-6.992188 14.164062c-.464844.945313-1.367188 1.597657-2.40625 1.75l-15.632812 2.269532c-2.621094.382812-3.667969 3.605468-1.773438 5.457031l11.3125 11.023437c.753906.734376 1.097656 1.792969.917969 2.832032l-2.667969 15.566406c-.449219 2.613281 2.292969 4.605469 4.640625 3.371094l13.980469-7.347656c.929687-.492188 2.042968-.492188 2.976562 0l13.980469 7.347656c2.34375 1.234375 5.085937-.757813 4.640625-3.371094l-2.671875-15.566406c-.175781-1.039063.167969-2.097656.921875-2.832032zm0 0" fill="#fee55a"/><path d="m308.363281 302.5 2.671875-15.566406c.175782-1.039063-.167968-2.097656-.921875-2.832032l-11.308593-11.023437c-.621094-.605469-.917969-1.351563-.960938-2.101563-.425781.324219-.925781.546876-1.46875.625l-15.632812 2.273438c-2.621094.378906-3.667969 3.601562-1.769532 5.453125l11.308594 11.023437c.753906.738282 1.097656 1.792969.921875 2.832032l-2.671875 15.570312c-.449219 2.609375 2.292969 4.601563 4.640625 3.371094l13.980469-7.351562c.460937-.242188.964844-.363282 1.472656-.367188-.269531-.558594-.382812-1.207031-.261719-1.90625zm0 0" fill="#ffd301"/><path d="m171.566406 279.328125c1.898438-1.851563.851563-5.074219-1.769531-5.457031l-15.632813-2.269532c-1.042968-.152343-1.941406-.804687-2.40625-1.75l-6.992187-14.164062c-1.171875-2.378906-4.5625-2.378906-5.734375 0l-6.992188 14.164062c-.464843.945313-1.363281 1.597657-2.40625 1.75l-15.632812 2.269532c-2.621094.382812-3.667969 3.605468-1.773438 5.457031l11.3125 11.023437c.753907.734376 1.097657 1.792969.921876 2.832032l-2.671876 15.566406c-.449218 2.613281 2.292969 4.605469 4.640626 3.371094l13.980468-7.347656c.933594-.492188 2.046875-.492188 2.976563 0l13.980469 7.347656c2.347656 1.234375 5.089843-.757813 4.640624-3.371094l-2.671874-15.566406c-.175782-1.039063.167968-2.097656.921874-2.832032zm0 0" fill="#fee55a"/><path d="m141.621094 302.5 2.671875-15.566406c.175781-1.039063-.167969-2.097656-.917969-2.832032l-11.3125-11.023437c-.621094-.605469-.917969-1.351563-.960938-2.101563-.425781.324219-.925781.546876-1.46875.625l-15.632812 2.273438c-2.621094.378906-3.667969 3.601562-1.769531 5.453125l11.308593 11.023437c.753907.738282 1.097657 1.792969.921876 2.832032l-2.671876 15.570312c-.445312 2.609375 2.296876 4.601563 4.640626 3.371094l13.980468-7.351562c.460938-.242188.96875-.363282 1.472656-.367188-.269531-.558594-.378906-1.207031-.261718-1.90625zm0 0" fill="#ffd301"/><path d="m308.363281 200.230469 2.667969-15.570313c.179688-1.035156-.164062-2.09375-.917969-2.828125l-11.308593-11.027343c-.621094-.601563-.921876-1.351563-.960938-2.097657-.425781.320313-.925781.542969-1.472656.625l-15.628906 2.269531c-2.625.378907-3.671876 3.605469-1.773438 5.453126l11.3125 11.027343c.753906.734375 1.097656 1.792969.917969 2.832031l-2.667969 15.566407c-.449219 2.613281 2.292969 4.605469 4.640625 3.371093l13.980469-7.351562c.460937-.242188.964844-.363281 1.472656-.363281-.269531-.558594-.382812-1.210938-.261719-1.90625zm0 0" fill="#ffd301"/><path d="m200.566406 137.804688-2.285156 13.339843c-1.496094 8.730469 7.675781 15.398438 15.523438 11.273438l11.976562-6.296875 11.980469 6.300781c7.84375 4.117187 17.019531-2.546875 15.519531-11.28125l-2.285156-13.339844 9.6875-9.445312c6.347656-6.183594 2.84375-16.972657-5.925782-18.246094l-13.394531-1.945313-5.988281-12.140624c-3.925781-7.945313-15.261719-7.945313-19.1875.003906l-5.988281 12.132812-13.390625 1.945313c-8.773438 1.273437-12.277344 12.0625-5.933594 18.25zm14.03125-15.121094c3.484375-.507813 6.492188-2.695313 8.050782-5.851563l3.132812-6.347656 3.132812 6.347656c1.558594 3.15625 4.570313 5.34375 8.058594 5.851563l7 1.019531-5.070312 4.941406c-2.519532 2.460938-3.667969 6.003907-3.070313 9.464844l1.195313 6.976563-6.265625-3.292969c-3.117188-1.636719-6.839844-1.636719-9.957031 0l-6.265626 3.292969 1.195313-6.96875c.597656-3.46875-.550781-7.011719-3.074219-9.476563l-5.070312-4.9375zm0 0"/><path d="m254.757812 217.417969-13.394531-1.945313-5.988281-12.136718c-3.925781-7.949219-15.261719-7.945313-19.1875 0l-5.988281 12.136718-13.394531 1.945313c-8.769532 1.273437-12.273438 12.058593-5.929688 18.246093l9.691406 9.445313-2.289062 13.34375c-1.496094 8.734375 7.683594 15.398437 15.523437 11.273437l11.980469-6.296874 11.976562 6.296874c7.859376 4.132813 17.019532-2.5625 15.523438-11.277343l-2.289062-13.339844 9.691406-9.445313c6.347656-6.183593 2.84375-16.972656-5.925782-18.246093zm-15.855468 18.535156c-2.519532 2.460937-3.671875 6.003906-3.074219 9.464844l1.199219 6.976562-6.265625-3.292969c-3.117188-1.636718-6.839844-1.636718-9.957031 0l-6.269532 3.292969 1.199219-6.96875c.597656-3.472656-.550781-7.011719-3.078125-9.476562l-5.066406-4.941407 7.003906-1.015624c3.484375-.507813 6.496094-2.695313 8.054688-5.851563l3.132812-6.347656 3.132812 6.347656c1.558594 3.15625 4.570313 5.34375 8.058594 5.851563l7.003906 1.015624zm0 0"/><path d="m283.9375 293.832031-2.285156 13.335938c-1.5 8.734375 7.675781 15.402343 15.523437 11.277343l11.976563-6.296874 11.980468 6.296874c7.839844 4.125 17.019532-2.539062 15.519532-11.277343l-2.285156-13.335938 9.6875-9.449219c6.347656-6.183593 2.84375-16.972656-5.929688-18.246093l-13.390625-1.945313-5.988281-12.136718c-3.921875-7.949219-15.265625-7.949219-19.1875 0l-5.988282 12.136718-13.394531 1.945313c-8.769531 1.273437-12.273437 12.058593-5.929687 18.246093zm14.027344-15.125c3.484375-.503906 6.496094-2.691406 8.054687-5.851562l3.132813-6.347657 3.132812 6.347657c1.558594 3.160156 4.570313 5.347656 8.054688 5.851562l7.007812 1.019531-5.070312 4.941407c-2.519532 2.457031-3.671875 5.996093-3.078125 9.46875l1.199219 6.976562-6.265626-3.296875c-3.117187-1.636718-6.839843-1.636718-9.957031 0l-6.265625 3.296875 1.195313-6.980469c.59375-3.46875-.554688-7.007812-3.078125-9.464843l-5.066406-4.941407zm0 0"/><path d="m117.199219 293.832031-2.289063 13.339844c-1.496094 8.734375 7.679688 15.398437 15.523438 11.273437l11.976562-6.296874 11.980469 6.296874c7.855469 4.128907 17.015625-2.5625 15.519531-11.277343l-2.285156-13.335938 9.691406-9.449219c6.34375-6.1875 2.835938-16.972656-5.929687-18.246093l-13.394531-1.945313-5.988282-12.136718c-3.921875-7.949219-15.265625-7.945313-19.1875 0l-5.988281 12.136718-13.394531 1.945313c-8.769532 1.273437-12.273438 12.066406-5.929688 18.25zm14.023437-15.125c3.484375-.503906 6.496094-2.691406 8.054688-5.851562l3.132812-6.347657 3.132813 6.347657c1.558593 3.160156 4.570312 5.347656 8.058593 5.851562l7.003907 1.019531-5.074219 4.945313c-2.519531 2.457031-3.667969 6-3.070312 9.464844l1.195312 6.976562-6.265625-3.296875c-3.117187-1.636718-6.839844-1.636718-9.957031 0l-6.265625 3.296875 1.195312-6.972656c.597657-3.472656-.550781-7.015625-3.074219-9.472656l-5.070312-4.941407zm0 0"/><path d="m254.757812 324.726562-13.394531-1.945312-5.988281-12.136719c-3.925781-7.949219-15.261719-7.945312-19.1875 0l-5.988281 12.136719-13.394531 1.945312c-8.769532 1.273438-12.273438 12.058594-5.929688 18.246094l9.691406 9.449219-2.289062 13.339844c-1.496094 8.734375 7.679687 15.398437 15.523437 11.273437l11.980469-6.296875 11.976562 6.296875c7.859376 4.132813 17.019532-2.5625 15.523438-11.277344l-2.289062-13.335937 9.691406-9.449219c6.347656-6.179687 2.84375-16.96875-5.925782-18.246094zm-15.855468 18.535157c-2.519532 2.460937-3.671875 6-3.074219 9.464843l1.199219 6.976563-6.265625-3.292969c-3.117188-1.636718-6.839844-1.636718-9.957031 0l-6.269532 3.292969 1.199219-6.96875c.597656-3.472656-.554687-7.011719-3.078125-9.476563l-5.066406-4.941406 7.007812-1.015625c3.484375-.507812 6.492188-2.695312 8.050782-5.855469l3.132812-6.347656 3.132812 6.347656c1.558594 3.15625 4.570313 5.347657 8.058594 5.855469l7.003906 1.015625zm0 0"/><path d="m14.609375 394.363281c59.277344 31.085938 126.144531 48.917969 193.378906 51.5625 4.125.167969 7.625-3.058593 7.789063-7.199219.160156-4.136718-3.0625-7.625-7.199219-7.789062-65.023437-2.558594-129.6875-19.796875-187-49.859375-6-3.144531-8.320313-10.585937-5.175781-16.585937 3.152344-6.011719 10.570312-8.324219 16.585937-5.171876 59.863281 31.398438 124.753907 47.398438 192.722657 47.398438 45.074218 0 89.578124-7.207031 131.4375-21.222656l-.402344 25.796875c-36.960938 11.511719-75.203125 18.121093-113.761719 19.652343-4.140625.164063-7.359375 3.652344-7.195313 7.789063.160157 4.039063 3.484376 7.203125 7.488282 7.203125.101562 0 .199218 0 .300781-.003906 38.238281-1.519532 76.171875-7.878906 112.925781-18.894532l-.996094 63.738282c-.183593 11.675781 9.214844 21.222656 20.894532 21.222656h12.355468c11.679688 0 21.078126-9.546875 20.894532-21.222656l-1.292969-82.785156c9.707031-4.25 19.265625-8.808594 28.453125-13.628907 13.320312-6.988281 18.476562-23.511719 11.488281-36.835937-6.984375-13.324219-23.511719-18.476563-36.835937-11.492188h.003906c-1.328125.695313-2.679688 1.390625-4.042969 2.085938l-.746093-47.851563c-.0625-4.101562-3.410157-7.382812-7.496094-7.382812-.039063 0-.078125 0-.121094 0-4.140625.066406-7.445312 3.476562-7.378906 7.617187l2.96875 190.507813c.050781 3.304687-2.605469 5.988281-5.894532 5.988281h-12.355468c-3.289063 0-5.945313-2.6875-5.894532-5.988281l4.539063-291.0625h15.066406l1.023438 65.554687c.0625 4.140625 3.460937 7.414063 7.617187 7.382813 4.140625-.066407 7.445313-3.472657 7.378906-7.617188-.042968-2.816406-1.867187-119.871093-1.972656-126.507812l9.347656 4.914062c10.722657 5.632813 23.253907-3.484375 21.207032-15.410156l-5.902344-34.4375 25.019531-24.390625c8.671875-8.453125 3.878907-23.191406-8.101562-24.929688l-34.578125-5.023437-15.464844-31.335937c-5.359375-10.859376-20.859375-10.859376-26.214844 0l-15.464844 31.332031-34.578124 5.023437c-11.984376 1.742188-16.769532 16.480469-8.101563 24.933594l25.019531 24.390625-5.90625 34.4375c-2.046875 11.933594 10.492188 21.039063 21.207032 15.410156l9.351562-4.917969c-.070312 4.460938-1.855469 118.835938-1.921875 123.15625-5.496094-11.855468-111.699219-240.921874-116.414063-251.085937-6.699218-14.445313-27.21875-14.429687-33.910156 0-6.773437 14.609375-150.832031 325.324219-157.957031 340.691406-3.632813-1.769531-7.246094-3.597656-10.839844-5.484375-13.355469-7.003906-29.835937-1.867187-36.839843 11.492188-6.988282 13.324218-1.832032 29.847656 11.492187 36.835937zm403.820313-35.042969c.003906 0 .003906 0 0 0 6-3.144531 13.441406-.824218 16.585937 5.171876 3.148437 6 .824219 13.441406-5.171875 16.585937-7.058594 3.703125-14.335938 7.257813-21.738281 10.625l-.417969-26.949219c3.679688-1.796875 7.277344-3.617187 10.742188-5.433594zm-43.148438-174.371093.84375-54.140625 6.453125-3.394532 6.457031 3.394532.84375 54.140625zm-29.921875-54.914063 5.808594-33.871094c.8125-4.742187-.757813-9.582031-4.203125-12.9375l-24.609375-23.988281 34.011719-4.941406c4.761718-.691406 8.875-3.683594 11.003906-7.996094l15.210937-30.816406 15.207031 30.816406c2.128907 4.3125 6.242188 7.304688 11.007813 7.996094l34.007813 4.941406-24.609376 23.988281c-3.445312 3.355469-5.015624 8.191407-4.203124 12.9375l5.808593 33.871094-19.839843-10.429687s-.003907-.003907-.003907-.003907c-18.910156-9.941406-16.457031-9.617187-34.75 0zm-43.171875 44.832032 9.109375 19.652343.011719.019531c-2.398438-.492187-4.917969-.15625-7.132813 1.007813l-6.265625 3.292969 1.195313-6.96875c.597656-3.472656-.550781-7.011719-3.074219-9.476563l-5.070312-4.941406 7.007812-1.019531c1.523438-.21875 2.957031-.761719 4.21875-1.566406zm-152.921875-.074219c1.289063.847656 2.761719 1.414062 4.332031 1.644531l7.003906 1.019531-5.066406 4.9375c-2.519531 2.460938-3.671875 6-3.078125 9.472657l1.195313 6.972656-6.261719-3.292969c-1.558594-.820313-3.269531-1.226563-4.980469-1.226563-.773437 0-1.550781.082032-2.3125.25.925782-1.996093 8.152344-17.582031 9.167969-19.777343zm-19.28125 41.59375c.148437-.070313.300781-.132813.445313-.210938h.003906l11.976562-6.296875 11.980469 6.296875c7.859375 4.132813 17.015625-2.566406 15.519531-11.277343l-2.285156-13.339844 9.6875-9.445313c6.347656-6.183593 2.84375-16.972656-5.925781-18.25l-13.394531-1.945312-1.421876-2.878907 65.792969-141.902343c1.324219-2.855469 5.367188-2.855469 6.691407 0l65.859374 142.050781-1.34375 2.730469-13.394531 1.945312c-8.773437 1.277344-12.273437 12.0625-5.929687 18.25l9.691406 9.445313-2.289062 13.339844c-1.496094 8.734374 7.683593 15.398437 15.523437 11.273437l11.980469-6.296875 11.976562 6.296875c.089844.046875.179688.082031.265625.125l37.144531 80.117187c-.464843 29.675782-.351562 22.652344-1.140624 73.117188-41.828126 14.640625-86.367188 22.183594-131.6875 22.183594-56.308594 0-110.40625-11.378906-161.308594-33.886719zm0 0"/></svg>