<svg height="480pt" viewBox="0 0 480 480.00956" width="480pt" xmlns="http://www.w3.org/2000/svg"><path d="m480.003906 408.007812c0-39.761718-107.449218-72-240-72-132.546875 0-239.99999975 32.238282-239.99999975 72 0 39.765626 107.45312475 72 239.99999975 72 132.550782 0 240-32.234374 240-72zm0 0"/><path d="m399.042969 397.691406-83.757813-231.921875c-7.3125-20.15625-9.726562-41.765625-7.039062-63.039062l11.679687-93.761719c.386719-3.203125-1.191406-6.328125-4-7.917969-2.824219-1.628906-6.359375-1.34375-8.882812.71875l-87.679688 70.160157c-22.300781 17.808593-39.128906 41.542968-48.558593 68.480468l-90.078126 257.359375c-.765624 2.128907-.589843 4.484375.476563 6.480469 1.085937 2 2.980469 3.429688 5.203125 3.917969 50.441406 11.027343 101.964844 16.34375 153.597656 15.839843 51.554688.503907 103-4.808593 153.359375-15.839843 2.214844-.523438 4.097657-1.96875 5.183594-3.96875 1.082031-2 1.265625-4.367188.496094-6.507813zm0 0"/><path d="m285.605469 282.328125-17.039063 16.5625 4.078125 23.359375c.515625 3.007812-.722656 6.050781-3.199219 7.839844-1.371093 1-3.023437 1.53125-4.71875 1.519531-1.304687-.015625-2.585937-.316406-3.761718-.878906l-20.960938-11.039063-20.960937 11.039063c-2.726563 1.363281-5.984375 1.117187-8.476563-.640625-2.476562-1.789063-3.71875-4.832032-3.203125-7.839844l4.082031-23.359375-17.039062-16.5625c-2.167969-2.117187-2.945312-5.28125-2-8.160156.933594-2.921875 3.445312-5.058594 6.480469-5.519531l23.4375-3.359376 10.480469-21.28125c1.515624-2.53125 4.25-4.078124 7.199218-4.078124 2.953125 0 5.683594 1.546874 7.199219 4.078124l10.480469 21.28125 23.441406 3.359376c3.035156.460937 5.542969 2.597656 6.480469 5.519531.941406 2.878906.164062 6.042969-2 8.160156zm0 0" fill="#f7931e"/><path d="m398.566406 404.167969c-1.054687 2.042969-2.960937 3.507812-5.203125 4-50.359375 11.03125-101.804687 16.34375-153.359375 15.839843-51.632812.503907-103.15625-4.8125-153.597656-15.839843-2.222656-.488281-4.117188-1.917969-5.203125-3.917969-1.066406-1.996094-1.242187-4.351562-.476563-6.480469l15.359376-43.839843c5.039062 1.121093 10.320312 2.238281 15.757812 3.28125 42.296875 7.527343 85.199219 11.140624 128.160156 10.796874 42.71875.324219 85.375-3.265624 127.441406-10.71875 5.519532-.960937 10.800782-2.078124 15.839844-3.28125l5.441406 15.203126 10.316407 28.480468c.8125 2.121094.636719 4.496094-.476563 6.476563zm0 0" fill="#ffcc5c"/><path d="m259.09375 169.691406 9.824219 12.636719 41.703125-32.4375c-2.257813-9.859375-3.40625-19.941406-3.425782-30.058594l-58.132812-7.75-2.113281 15.855469 56.191406 7.496094zm0 0" fill="#4d4d4d"/></svg>