<svg id="Layer_1" enable-background="new 0 0 511.999 511.999" height="512" viewBox="0 0 511.999 511.999" width="512" xmlns="http://www.w3.org/2000/svg"><path d="m480.999 0v27.18c0 34.19-18.71 65.51-48.82 81.75h-352.36c-30.11-16.24-48.82-47.56-48.82-81.75v-27.18z" fill="#ffb64c"/><path d="m480.999 0v27.18c0 34.19-18.71 65.51-48.82 81.75h-176.18v-108.93z" fill="#ff9100"/><path d="m381.999 393.7h-252c-103.79-45.3-117.79-144.79-111.93-162.34h475.86c6.83 20.48-11.33 118.43-111.93 162.34z" fill="#ff9100"/><path d="m381.999 393.7h-126v-162.34h237.93c6.83 20.48-11.33 118.43-111.93 162.34z" fill="#ff641a"/><path d="m303.999 366c-11.27 15.03-29.21 24-48 24s-36.73-8.97-48-24l-27-36.02v110.02c1.249 1.068 24.213 40 75 40 49.842 0 74.117-39.245 75-40v-110.02z" fill="#ff9100"/><path d="m330.999 329.98v110.02c-1.249 1.068-24.213 40-75 40v-90c18.79 0 36.73-8.97 48-24z" fill="#ff641a"/><path d="m319.099 316.2c-15.04-3.17-33.22-12.76-54.06-28.51l-9.04-6.83-9.04 6.83c-21.1 15.95-39.34 25.7-54.2 28.98l-11.76 2.6v60.73l3 4c16.9 22.54 43.81 36 72 36s55.1-13.46 72-36l3-4v-61.28z" fill="#a44f3e"/><path d="m330.999 318.72v61.28l-3 4c-16.9 22.54-43.81 36-72 36v-139.14l9.04 6.83c20.84 15.75 39.02 25.34 54.06 28.51z" fill="#883f2e"/><path d="m450.939 30c-.88 19.74-10.97 37.8-27.12 48.93h-335.64c-16.15-11.13-26.24-29.19-27.12-48.93z" fill="#ff641a"/><path d="m450.939 30c-.88 19.74-10.97 37.8-27.12 48.93h-167.82v-48.93z" fill="#f03800"/><path d="m510.999 180v15c0 41.35-33.64 75-75 75h-360c-41.35 0-75-33.65-75-75v-15h45c2.54 0 3.95 0 6.13-4.68 3.02-6.47 4.88-17.64 6.85-29.45 4.53-27.18 10.73-64.39 38.19-94.34 31.78-34.67 83.74-51.53 158.83-51.53s127.05 16.86 158.83 51.53c27.46 29.95 33.66 67.16 38.19 94.34 1.97 11.81 3.83 22.98 6.85 29.45 2.18 4.68 3.59 4.68 6.13 4.68z" fill="#ffb64c"/><path d="m510.999 180v15c0 41.35-33.64 75-75 75h-180v-270c75.09 0 127.05 16.86 158.83 51.53 27.46 29.95 33.66 67.16 38.19 94.34 1.97 11.81 3.83 22.98 6.85 29.45 2.18 4.68 3.59 4.68 6.13 4.68z" fill="#ff9100"/><path d="m300.999 330.877v181.122c6.345-3.934 90-32.395 90-121.352v-120.647z" fill="#ffe6b3"/><path d="m120.999 270v105.646c0 103.784 89.89 136.27 90 136.353v-180.676z" fill="#fff7cc"/><path d="m390.999 270c0 33.55-13.43 60.27-35.93 71.47-22.31 11.1-50.52 6.56-84.07-13.51-4.88-2.91-9.88-6.16-14.99-9.74 0 0-.01 0-.01.01-5.12 3.58-10.11 6.85-15 9.79-25.44 15.32-57.01 27.43-83.66 14.16-26.82-13.35-36.34-47.22-36.34-72.18 0-37.97 23.63-70.52 56.96-83.72l78.04-.03 77.92-.02c33.39 13.17 57.08 45.75 57.08 83.77z" fill="#fed2a4"/><path d="m390.999 270c0 33.55-13.43 60.27-35.93 71.47-22.31 11.1-50.52 6.56-84.07-13.51-4.88-2.91-9.88-6.16-14.99-9.74 0 0-.01 0-.01.01v-131.98l77.92-.02c33.39 13.17 57.08 45.75 57.08 83.77z" fill="#ffbd86"/><path d="m333.919 186.23-15.83 18.78-47.09 55.49v67.44l-15 .03-15 .03v-67.49l-63.04-74.23c10.23-4.05 21.38-6.28 33.04-6.28h90c11.62 0 22.72 2.21 32.92 6.23z" fill="#5b5555"/><path d="m333.919 186.23-15.83 18.78-47.09 55.49v67.44l-15 .03v-147.97h45c11.62 0 22.72 2.21 32.92 6.23z" fill="#463f3f"/><path d="m132.458 105h67.082v30h-67.082z" fill="#a44f3e" transform="matrix(.894 .447 -.447 .894 71.191 -61.568)"/><path d="m330.999 86.459h30v67.082h-30z" fill="#883f2e" transform="matrix(.447 .894 -.894 .447 298.6 -243.138)"/></svg>